<svg width="440" height="440" xmlns="http://www.w3.org/2000/svg" xmlns:xlink="http://www.w3.org/1999/xlink" xml:space="preserve" overflow="hidden"><g transform="translate(-420 -160)"><g><g><g><path d="M385.261 561.566C385.556 561.035 384.848 560.798 383.372 560.976 382.958 561.035 381.777 559.145 381.718 558.26 381.659 557.964 381.364 557.728 380.951 557.846 380.538 557.905 380.183 557.492 380.183 556.961 380.065 555.307 379.947 554.835 378.943 552.65 378.412 551.529 378.117 550.407 378.235 550.23 378.353 549.993 378.058 549.639 377.526 549.462 377.054 549.285 376.818 548.812 377.054 548.458 377.29 548.045 377.231 547.927 376.818 548.163 376.286 548.458 374.22 548.163 370.087 547.041 369.496 546.864 368.434 546.628 367.725 546.451 367.017 546.333 365.718 545.447 364.891 544.62 364.064 543.735 363.828 543.203 364.301 543.44 364.773 543.676 364.714 543.499 364.064 542.967 363.474 542.495 363.179 541.845 363.415 541.491 363.592 541.137 363.474 540.842 363.12 540.842 362.765 540.842 362.588 540.369 362.765 539.838 362.943 539.247 363.179 538.067 363.356 537.181 363.71 535.232 365.009 533.166 366.957 531.749 371.681 528.206 372.567 526.73 371.858 523.483 371.563 522.184 371.445 520.471 371.563 519.704 371.681 518.995 371.563 518.228 371.327 518.051 371.032 517.874 370.795 517.46 370.795 517.165 370.795 516.811 371.032 516.693 371.327 516.87 371.622 517.047 371.858 516.279 371.799 515.039 371.74 513.327 372.094 512.619 373.688 511.261 374.81 510.375 375.873 509.607 376.05 509.666 376.227 509.666 376.523 509.607 376.7 509.548 376.877 509.489 377.703 509.312 378.589 509.194 380.242 508.899 385.556 511.024 385.556 511.969 385.556 512.264 385.97 512.501 386.442 512.501 386.914 512.501 387.328 512.737 387.328 512.973 387.328 513.209 388.154 513.74 389.158 514.095 390.988 514.803 392.346 514.449 396.893 512.087 399.254 510.906 403.86 510.552 405.631 511.438 407.521 512.442 409.174 515.748 409.174 518.641 409.174 519.881 408.761 522.479 408.229 524.427 407.403 527.852 407.58 531.749 408.583 531.099 409.056 530.804 411.122 533.52 410.827 533.992 410.709 534.111 411.299 534.76 412.126 535.41 413.779 536.709 415.432 541.491 414.783 543.026 414.488 543.617 414.37 544.443 414.429 544.857 414.488 545.27 414.134 545.742 413.661 545.919 413.13 546.096 412.894 546.569 413.13 546.923 413.307 547.277 413.189 547.336 412.835 547.1 412.421 546.864 412.126 546.982 412.126 547.336 412.126 548.399 408.288 549.698 405.69 549.521 402.502 549.344 402.561 548.517 405.808 548.517 408.82 548.517 411.949 546.746 412.776 544.561 413.838 541.786 412.894 539.484 408.938 534.996L405.218 530.686 406.517 525.077C408.052 518.523 407.757 516.22 405.1 514.272 402.679 512.619 401.203 512.796 395.417 515.453L390.339 517.815 385.733 514.862C383.195 513.268 380.715 511.969 380.242 511.851 377.881 511.615 376.464 512.087 374.81 513.681L373.039 515.512 373.452 522.184 373.866 528.797 369.673 532.516C365.009 536.649 363.71 539.188 364.891 542.022 366.013 544.739 367.312 545.506 373.098 546.687 376.05 547.277 378.589 547.868 378.707 547.986 378.766 548.104 379.711 550.584 380.833 553.418 383.076 559.263 384.612 560.917 387.859 560.917 390.929 560.917 392.287 559.736 395.417 554.126 397.837 549.698 398.369 549.108 399.845 549.108 400.731 549.108 401.616 549.108 401.793 549.108 401.97 549.108 402.089 549.285 402.03 549.58 402.03 549.816 401.38 549.934 400.612 549.875 399.668 549.816 399.077 550.171 398.841 550.938 398.605 551.529 398.192 552.06 397.896 552.06 397.542 552.06 397.483 552.355 397.66 552.65 397.837 553.005 397.778 553.241 397.483 553.241 397.188 553.241 396.598 554.304 396.184 555.544 395.771 556.783 394.531 558.732 393.409 559.736 391.756 561.33 390.811 561.743 388.095 561.92 385.852 562.097 384.966 561.979 385.261 561.566Z" fill="#000000" fill-rule="nonzero" fill-opacity="1" transform="matrix(1 0 0 -1.00348 280.029 754.758)"/><path d="M259.793 444.069 259.793 402.679 278.274 402.679C294.806 402.679 297.286 402.797 301.36 403.86 314.349 407.166 323.206 415.492 327.516 428.363 328.992 432.791 329.11 433.795 329.169 443.714 329.169 453.221 329.051 454.815 327.811 458.771 325.686 465.443 323.088 469.812 318.542 474.476 315.53 477.547 313.228 479.259 309.98 480.794 301.832 484.75 300.592 484.927 279.159 485.222L259.793 485.399 259.793 444.069ZM295.869 469.044C303.072 467.391 308.15 462.727 310.334 455.641 311.633 451.39 312.047 441.648 311.22 436.511 310.334 431.433 307.855 426.06 305.198 423.521 304.076 422.459 301.596 420.924 299.647 419.979 296.341 418.444 295.514 418.326 286.835 418.148L277.506 417.912 277.506 443.951 277.506 469.989 284.65 469.989C288.961 469.989 293.33 469.635 295.869 469.044Z" fill="#000000" fill-rule="nonzero" fill-opacity="1" transform="matrix(1 0 0 -1.00348 280.029 754.758)"/><path d="M358.455 484.041C357.451 481.384 331.059 404.864 330.764 403.742 330.527 402.679 330.941 402.679 340.152 402.797L349.776 402.974 352.61 412.008 355.503 420.983 370.323 420.865 385.202 420.687 388.036 411.713 390.929 402.679 400.612 402.679 410.296 402.679 406.576 413.484C404.509 419.388 398.133 437.987 392.346 454.815L381.777 485.34 370.382 485.34C359.105 485.34 358.928 485.34 358.455 484.041ZM380.242 435.625C380.242 435.33 375.696 435.153 370.146 435.153 361.88 435.153 360.108 435.271 360.345 435.98 360.522 436.393 362.706 442.947 365.127 450.564 367.607 458.18 369.792 464.793 369.969 465.265 370.264 465.974 380.183 437.22 380.242 435.625Z" fill="#000000" fill-rule="nonzero" fill-opacity="1" transform="matrix(1 0 0 -1.00348 280.029 754.758)"/><path d="M416.85 444.01 416.85 402.679 426.001 402.679 435.153 402.679 435.153 415.964 435.153 429.249 445.072 429.249C459.302 429.249 464.97 430.902 471.288 436.806 476.897 442.061 479.436 448.379 479.436 457.295 479.436 468.69 474.417 477.429 465.265 482.093 459.715 484.927 456.055 485.34 435.625 485.34L416.85 485.34 416.85 444.01ZM454.46 468.926C460.778 465.62 463.022 457.236 459.479 450.445 458.121 447.789 457.295 446.962 454.46 445.545 451.331 443.951 450.445 443.774 443.124 443.537L435.153 443.242 435.153 456.999 435.153 470.698 443.596 470.461C450.859 470.284 452.335 470.107 454.46 468.926Z" fill="#000000" fill-rule="nonzero" fill-opacity="1" transform="matrix(1 0 0 -1.00348 280.029 754.758)"/><path d="M181.56 422.341C179.907 421.927 177.191 419.152 177.132 417.912 177.132 417.322 176.836 416.85 176.541 416.85 176.187 416.85 175.478 415.905 174.947 414.783 173.766 412.362 173.294 412.185 166.504 411.89 163.551 411.772 161.426 411.418 161.308 411.004 161.19 410.65 160.776 410.355 160.363 410.355 158.887 410.355 157.529 406.871 157.824 403.978 158.119 401.321 160.776 396.184 161.898 396.184 162.193 396.184 162.312 395.948 162.134 395.712 161.957 395.417 162.312 394.767 162.961 394.295 164.083 393.291 164.024 391.402 162.784 389.866 162.489 389.453 162.371 389.099 162.607 389.099 162.784 389.099 162.548 388.154 162.075 386.914 161.603 385.733 161.308 384.316 161.544 383.667 161.721 383.076 161.603 382.604 161.308 382.604 160.363 382.604 161.308 379.475 162.784 377.467 163.551 376.464 165.028 375.342 165.972 374.987 167.803 374.338 170.991 374.692 172.29 375.696 172.644 375.991 172.998 376.05 172.998 375.814 172.998 375.578 173.412 375.696 173.884 376.109 174.356 376.523 174.77 376.641 174.77 376.405 174.77 376.168 175.124 376.227 175.537 376.523 176.954 377.644 179.316 377.881 180.084 376.995 180.497 376.523 181.028 376.286 181.324 376.464 181.619 376.641 181.855 376.523 181.855 376.227 181.855 375.932 183.036 374.869 184.512 373.807 185.988 372.744 187.169 372.094 187.169 372.33 187.169 372.508 187.523 372.39 187.996 372.035 189.531 370.736 194.077 372.271 195.967 374.692 197.029 376.05 197.206 377.054 197.206 382.014L197.206 387.682 199.332 389.571C200.513 390.634 201.576 391.461 201.753 391.461 202.638 391.461 206.594 396.302 206.89 397.719 207.893 402.502 204.764 406.458 199.155 407.521 194.963 408.288 194.018 408.997 192.955 412.185 192.306 413.956 191.833 415.846 191.833 416.436 191.833 416.968 191.597 417.44 191.243 417.44 190.948 417.44 190.771 417.617 190.889 417.912 191.125 418.68 188.704 421.278 186.992 422.045 185.339 422.754 183.685 422.872 181.56 422.341ZM188.586 419.743C189.413 418.739 190.121 417.617 190.121 417.263 190.121 416.909 190.712 414.783 191.361 412.598L192.66 408.583 197.679 407.048C203.465 405.277 205.473 403.624 205.473 400.494 205.473 397.542 204.705 396.479 199.922 392.937L195.553 389.748 195.848 384.257C196.085 379.475 195.967 378.53 194.904 376.818 193.487 374.633 191.125 373.511 188.999 374.043 188.173 374.279 185.634 375.814 183.39 377.467L179.316 380.479 174.179 378.648C168.275 376.582 166.563 376.641 164.437 379.18 162.607 381.364 162.607 382.899 164.437 388.686 165.264 391.225 165.913 393.468 165.913 393.704 165.913 393.941 164.437 396.125 162.666 398.546 158.71 403.978 158.356 406.458 161.131 409.233 162.784 410.886 163.079 410.945 168.511 410.945L174.12 410.945 177.191 415.669C178.903 418.326 180.674 420.687 181.206 420.983 181.737 421.278 183.272 421.573 184.63 421.573 186.638 421.573 187.346 421.278 188.586 419.743Z" fill="#000000" fill-rule="nonzero" fill-opacity="1" transform="matrix(1 0 0 -1.00348 280.029 754.758)"/><path d="M323.265 384.907C312.342 383.254 302.659 378.294 294.924 370.441L291.322 366.78 284.828 366.544C279.336 366.367 277.978 366.072 275.38 364.773 266.465 360.167 262.45 349.303 265.697 338.794 267.232 333.775 270.48 330.055 275.38 327.693L279.1 325.981 280.045 320.195C282.348 306.201 288.724 293.094 299.529 280.163 303.426 275.558 304.017 274.554 302.954 274.554 302.659 274.554 302.245 274.141 302.068 273.609 301.832 273.019 303.19 271.129 306.379 267.823L311.043 262.981 310.216 258.553C309.803 256.191 309.449 253.18 309.449 251.999 309.39 248.988 310.393 249.047 317.124 252.471L322.497 255.128 328.284 251.881C333.48 248.929 343.576 242.08 357.924 231.865 366.898 225.488 369.024 224.367 371.799 224.367 375.401 224.367 377.29 225.311 384.493 230.743 387.918 233.341 392.051 235.88 393.645 236.471 400.14 238.832 402.738 240.427 405.513 243.792 408.347 247.217 412.126 250.582 412.598 250.051 412.716 249.933 412.303 248.87 411.595 247.689 408.938 243.143 410.886 238.537 415.492 238.537 417.44 238.537 418.148 238.95 421.219 242.257 431.02 252.531 432.26 255.247 428.658 258.612 426.769 260.383 426.474 261.505 427.536 262.568 428.068 263.099 428.776 262.981 430.489 262.096 433.205 260.738 438.578 260.56 440.998 261.859 443.537 263.158 447.316 267.764 448.497 270.893 449.147 272.783 449.56 275.794 449.619 280.163L449.796 286.658 452.158 290.201C453.457 292.149 455.641 295.81 456.999 298.289 459.361 302.659 459.479 302.836 460.955 302.245 463.848 301.124 464.203 301.773 463.789 307.441L463.376 312.637 466.387 315.589C469.812 318.896 470.166 320.431 467.804 320.962 464.439 321.671 464.557 321.435 464.97 326.926 465.797 337.199 463.14 349.776 458.416 358.219 451.567 370.5 439.581 380.183 426.533 383.903 422.813 384.966 420.451 385.202 414.783 385.202 405.336 385.143 397.896 383.135 390.339 378.471 386.973 376.405 386.324 376.286 385.852 377.881 385.202 380.006 382.781 379.357 381.423 376.759 380.006 373.984 379.829 373.807 376.582 373.275 373.393 372.744 372.862 370.913 375.165 368.493L376.641 366.957 374.751 364.182C373.688 362.647 372.567 361.348 372.153 361.348 371.799 361.348 370.854 362.234 370.146 363.297 363.179 373.334 351.783 381.305 340.683 383.962 335.664 385.202 327.752 385.615 323.265 384.907ZM387.328 370.795C388.922 370.795 389.335 369.733 388.272 368.493 387.741 367.902 387.328 366.78 387.328 365.954 387.328 364.064 386.855 363.592 385.438 364.36 384.671 364.773 383.726 364.773 382.545 364.36 380.951 363.828 380.833 363.887 380.833 365.363 380.833 366.249 380.419 367.607 379.888 368.315 378.943 369.733 379.18 370.795 380.597 370.795 381.069 370.795 382.014 371.445 382.722 372.33L384.021 373.807 385.143 372.33C385.733 371.445 386.737 370.795 387.328 370.795ZM331.59 367.548C334.897 366.072 338.38 362.943 339.915 359.99 340.447 358.928 340.978 356.152 341.155 353.614 341.392 349.658 341.214 348.654 339.915 345.82 338.203 341.982 334.956 339.384 330.468 338.026 324.741 336.314 318.482 337.377 311.87 341.096 307.559 343.458 307.028 343.281 306.615 339.266 305.906 333.362 309.154 327.398 314.29 324.977 320.313 322.202 324.328 323.324 330.114 329.465L334.011 333.598 338.144 333.598C343.753 333.598 344.167 333.066 342.868 327.811 342.336 325.627 341.805 320.549 341.687 316.475 341.451 310.925 341.096 308.327 340.211 305.906 336.963 297.581 331.59 293.743 321.966 293.035 309.862 292.09 298.289 298.762 296.695 307.737 295.81 312.401 299.529 316.121 303.662 314.763 306.556 313.759 307.441 312.519 308.504 307.914 309.035 305.611 310.157 302.895 310.984 301.773 315.826 295.455 327.162 296.518 330.527 303.603 331.944 306.556 333.362 315.471 332.771 317.833 332.299 319.9 331.59 319.84 327.103 317.538 323.855 315.826 322.852 315.589 318.896 315.648 310.334 315.707 303.544 319.959 299.825 327.575 297.935 331.354 297.876 331.826 297.876 338.321 297.876 342.041 298.112 346.469 298.349 348.063L298.821 351.016 295.751 354.086C291.913 357.983 288.783 359.223 284.001 358.868 278.51 358.455 275.203 355.385 274.731 350.307 274.495 348.122 274.79 346.883 275.853 344.875 277.742 341.273 280.458 339.915 284.296 340.447 285.949 340.683 287.721 340.801 288.37 340.801 291.736 340.624 292.857 335.664 290.201 332.771 288.193 330.586 285.241 329.465 281.521 329.465 273.137 329.524 266.819 337.672 267.587 347.473 268.118 354.027 271.247 359.046 276.561 361.821 279.218 363.238 280.222 363.415 285.182 363.415 291.145 363.356 293.389 362.647 299.766 358.691L302.245 357.156 303.308 358.455C306.91 362.883 309.331 365.068 312.578 366.662 318.896 369.733 325.922 370.087 331.59 367.548ZM357.097 364.182C357.629 363.651 357.806 358.337 357.865 344.285 357.924 333.657 358.101 324.387 358.337 323.56 358.573 322.734 359.872 321.317 361.23 320.431 366.013 317.184 364.123 315.885 354.676 315.885 349.48 315.885 347.768 316.062 347.178 316.77 346.174 317.951 346.883 319.604 348.949 320.785 349.894 321.376 350.839 322.438 351.016 323.147 351.193 323.855 351.252 331.354 351.193 339.738L351.016 355.09 349.126 355.562C347.768 355.916 347.178 356.448 347.178 357.215 347.178 358.573 354.322 364.773 356.093 364.891 356.271 364.891 356.684 364.596 357.097 364.182ZM442.829 351.37C444.954 350.779 445.013 348.831 442.947 346.469 440.29 343.458 439.699 341.923 435.744 327.693 433.677 320.372 431.67 314.054 431.256 313.582 430.371 312.578 424.879 312.342 423.935 313.287 423.64 313.582 422.459 317.361 421.278 321.671 419.152 329.76 418.385 331.826 417.44 331.826 416.141 331.826 415.196 329.701 413.661 323.029 412.716 319.014 411.595 315.412 411.122 314.94 410.059 313.936 405.572 313.877 404.332 314.881 403.801 315.235 401.852 320.254 400.022 325.922 396.184 337.495 395.18 339.738 392.996 341.805 392.169 342.631 391.461 343.694 391.461 344.285 391.461 346.233 392.937 346.646 398.9 346.469 404.037 346.292 404.746 346.174 404.923 345.17 405.041 344.58 404.332 343.281 403.269 342.159L401.38 340.211 403.565 332.889C406.222 324.21 406.517 323.56 408.052 323.56 409.528 323.56 410 324.741 411.831 332.948 413.661 341.273 413.661 341.923 411.831 344.108 408.701 347.827 410.059 348.949 417.558 348.949 422.459 348.949 423.403 348.772 423.876 347.886 424.289 347.06 423.994 346.233 422.695 344.285 421.75 342.868 420.983 341.451 420.983 341.155 420.983 340.093 425.175 323.915 425.765 322.852 426.415 321.612 427.655 321.494 428.599 322.616 429.367 323.501 433.382 341.332 433.382 343.812 433.382 344.698 432.85 346.233 432.142 347.119 430.607 349.185 430.843 350.839 432.791 351.37 434.681 351.901 440.939 351.901 442.829 351.37ZM380.892 346.883C384.257 345.702 388.095 341.864 389.748 338.085 391.579 333.952 391.992 326.808 390.634 323.265 389.158 319.486 385.143 316.121 381.069 315.294 372.685 313.523 365.481 319.84 363.828 330.291 362.529 338.616 366.249 344.934 373.748 347.237 376.109 347.945 378.117 347.827 380.892 346.883ZM456.114 322.32C457.295 319.781 458.83 318.837 461.723 318.837 464.321 318.837 464.439 317.774 462.018 315.294 459.892 313.109 459.833 312.991 460.247 309.744 460.483 307.914 460.483 306.438 460.306 306.438 460.07 306.438 458.889 306.969 457.59 307.618 456.291 308.268 454.874 308.799 454.342 308.799 453.811 308.799 452.394 308.268 451.095 307.618 449.796 306.969 448.615 306.438 448.438 306.438 448.202 306.438 448.261 307.914 448.497 309.744 448.851 312.991 448.851 313.05 446.608 315.353 444.718 317.302 444.482 317.774 445.191 318.246 445.663 318.542 446.667 318.837 447.375 318.837 449.855 318.837 451.449 319.9 452.571 322.32 453.161 323.678 453.929 324.741 454.342 324.741 454.756 324.741 455.523 323.678 456.114 322.32ZM372.271 307.264C378.471 307.028 383.844 306.615 384.257 306.26 384.612 305.965 384.966 305.08 384.966 304.371 384.966 303.367 384.375 302.836 382.309 302.009 380.833 301.478 379.357 300.533 379.002 299.884 378.648 299.116 378.471 291.204 378.589 277.034 378.766 256.368 378.825 255.247 380.006 253.003 380.715 251.704 382.132 250.11 383.195 249.519 385.852 247.984 391.225 247.984 393.881 249.519 397.129 251.468 398.015 253.652 398.664 261.741 399.314 269.83 399.018 295.514 398.31 297.168 398.015 297.758 396.598 298.821 395.062 299.529 392.996 300.533 392.287 301.183 392.169 302.423 391.815 305.375 393.527 305.847 404.155 305.847 414.901 305.847 416.554 305.375 416.554 302.6 416.554 301.006 416.259 300.769 413.897 300.061 409.823 298.88 408.347 297.994 407.934 296.4 407.698 295.573 407.521 286.481 407.462 276.207 407.403 264.93 407.166 256.25 406.753 254.361 405.159 246.921 401.439 242.257 395.771 240.545 392.169 239.423 384.612 239.482 381.364 240.604 376.641 242.257 372.212 246.803 370.736 251.468 370.264 252.826 369.91 261.505 369.673 276.148 369.319 297.817 369.26 298.762 368.079 300.356 365.718 303.544 359.695 304.135 354.794 301.655 350.957 299.707 347.178 292.976 347.178 288.134 347.178 285.536 349.658 281.521 351.96 280.34 354.499 279.041 355.326 279.277 356.92 281.816 359.282 285.536 363.769 284.178 363.887 279.691 364.005 275.203 360.581 272.487 354.853 272.487 347.296 272.546 342.159 277.211 340.624 285.477 339.974 289.079 340.742 294.747 342.277 297.876 343.576 300.415 347.709 304.548 350.248 305.906 352.61 307.146 357.924 308.209 359.872 307.914 360.522 307.796 366.131 307.5 372.271 307.264ZM422.577 295.101C422.931 294.688 423.344 293.625 423.581 292.739 424.112 290.496 425.647 290.614 428.954 293.153 433.441 296.577 437.751 296.459 441.943 292.798 445.132 289.964 446.608 285.772 446.608 279.573 446.608 273.373 445.25 269.476 441.884 266.229 440.172 264.575 439.345 264.28 436.452 264.044 433.382 263.808 432.85 263.985 431.079 265.402 429.544 266.701 429.249 267.41 429.367 268.886 429.544 270.598 429.721 270.716 432.555 271.07 438.164 271.779 440.231 274.436 440.054 280.813 439.877 287.544 437.515 290.555 432.496 290.614 429.367 290.673 427.241 289.374 425.411 286.304 424.348 284.473 424.23 283.056 424.053 271.011L423.876 257.726 425.647 256.723C426.651 256.191 427.477 255.306 427.477 254.774 427.477 254.243 425.057 250.995 422.104 247.63 418.089 243.024 416.377 241.489 415.492 241.607 413.13 241.962 413.012 243.379 415.137 247.748L417.145 251.763 417.322 268.236C417.44 279.395 417.322 284.946 416.85 285.477 416.495 285.89 415.432 286.363 414.488 286.599 411.772 287.13 412.244 288.842 415.846 291.854 418.798 294.334 420.865 295.751 421.632 295.81 421.868 295.81 422.282 295.455 422.577 295.101ZM325.036 278.096C326.512 275.203 327.516 273.904 328.461 273.668 329.169 273.55 331.354 273.137 333.243 272.783 335.192 272.487 336.904 272.074 337.081 271.897 337.199 271.72 335.841 270.008 333.893 268.059L330.468 264.575 330.823 261.446C331.059 259.675 331.413 257.431 331.59 256.368 331.885 254.774 331.826 254.479 330.882 254.479 330.232 254.479 328.461 255.306 326.808 256.25 323.088 258.435 322.025 258.435 317.656 256.25 312.283 253.534 312.46 253.298 313.877 261.978 314.231 264.398 314.172 264.575 310.807 268.059 306.851 272.192 306.969 272.428 312.578 273.078 314.586 273.255 316.534 273.609 316.888 273.845 317.184 274.082 318.246 275.735 319.132 277.506 320.962 281.167 321.73 282.23 322.438 282.23 322.734 282.23 323.915 280.399 325.036 278.096ZM356.684 257.431C358.042 257.431 358.16 256.073 356.92 255.069 356.448 254.656 356.034 253.593 356.034 252.767 356.034 251.173 355.916 251.173 352.669 251.232 349.48 251.291 349.362 251.35 349.303 252.826 349.244 253.711 348.713 254.951 348.122 255.601 347.001 256.841 347.001 256.841 348.831 257.49 349.835 257.844 351.075 258.789 351.606 259.616L352.61 261.151 354.086 259.262C354.853 258.258 356.034 257.431 356.684 257.431Z" fill="#000000" fill-rule="nonzero" fill-opacity="1" transform="matrix(1 0 0 -1.00348 280.029 754.758)"/><path d="M319.781 361.88C316.416 361.053 313.877 359.282 311.456 356.093 308.327 351.783 308.563 351.075 313.995 348.477 317.774 346.646 319.191 346.292 322.438 346.292 328.638 346.292 331.236 348.477 331.236 353.791 331.236 359.754 326.158 363.356 319.781 361.88Z" fill="#000000" fill-rule="nonzero" fill-opacity="1" transform="matrix(1 0 0 -1.00348 280.029 754.758)"/><path d="M373.748 340.86C370.854 339.384 369.437 336.432 369.851 332.653 370.736 324.505 375.637 319.663 380.892 321.789 383.844 323.029 384.966 325.036 384.966 329.11 384.907 338.026 379.416 343.753 373.748 340.86Z" fill="#000000" fill-rule="nonzero" fill-opacity="1" transform="matrix(1 0 0 -1.00348 280.029 754.758)"/><path d="M532.28 358.868C531.454 358.219 530.922 357.51 531.099 357.215 531.276 356.92 531.099 356.625 530.745 356.507 530.332 356.389 529.978 355.739 529.919 355.09 529.8 354.499 529.446 353.2 529.092 352.197 528.738 351.252 528.442 350.189 528.442 349.953 528.501 349.008 526.789 347.827 524.664 347.473 523.483 347.237 522.538 346.824 522.538 346.528 522.538 346.233 522.184 346.174 521.711 346.351 521.298 346.528 519.704 346.056 518.169 345.406 515.689 344.226 515.158 343.635 515.394 342.336 515.394 342.041 515.158 341.864 514.803 341.864 514.213 341.864 514.272 338.735 514.98 335.723 515.276 334.601 521.652 328.284 522.538 328.284 523.069 328.284 522.833 322.143 522.243 319.545 522.066 318.778 522.125 317.892 522.361 317.479 522.597 317.065 522.833 316.416 522.892 316.003 523.069 314.822 524.959 312.932 526.907 311.929 529.092 310.807 532.103 311.279 534.524 313.109 538.421 316.062 540.015 316.593 542.79 315.766 544.148 315.412 545.86 314.704 546.569 314.231 549.816 312.165 554.422 313.05 556.311 316.003 557.492 317.951 557.61 321.612 556.488 325.863 555.366 330.232 555.544 331 558.378 333.952 559.559 335.192 560.857 337.081 561.271 338.144 562.334 340.683 562.334 344.108 561.212 345.17 560.739 345.643 559.972 346.587 559.499 347.296 558.555 348.654 557.138 348.949 551.588 349.185L547.927 349.362 545.801 352.846C544.679 354.735 543.44 356.448 543.144 356.507 542.849 356.625 542.79 356.979 542.967 357.333 543.144 357.629 542.79 358.042 542.141 358.219 541.491 358.396 540.783 358.868 540.605 359.282 540.133 360.522 533.992 360.227 532.28 358.868ZM539.365 358.868C540.31 358.455 542.082 356.212 543.853 353.259L546.805 348.359 551.41 348.359C556.783 348.359 559.618 346.942 560.444 343.93 561.094 341.392 560.621 340.329 556.842 335.664L553.477 331.531 554.481 327.87C556.488 320.608 556.488 319.781 554.422 317.42 552.001 314.704 550.584 314.704 544.679 317.361L540.074 319.486 535.587 316.475C530.45 313.169 528.738 312.873 526.199 314.999 523.955 316.888 523.66 318.128 524.25 323.855L524.723 328.579 520.471 332.712C515.335 337.613 514.685 339.384 516.752 342.454 517.874 344.108 518.759 344.698 521.357 345.288 527.852 346.883 529.033 347.237 529.033 347.827 529.033 348.122 529.8 350.425 530.804 352.964 533.107 358.928 535.528 360.64 539.365 358.868Z" fill="#000000" fill-rule="nonzero" fill-opacity="1" transform="matrix(1 0 0 -1.00348 280.029 754.758)"/><path d="M205.059 277.093C204.646 276.975 203.76 275.617 203.052 274.082 202.343 272.546 201.576 270.893 201.34 270.421 201.103 269.948 199.745 269.181 198.328 268.768 193.605 267.291 192.66 266.819 191.952 265.343 190.653 262.509 191.184 261.033 194.431 257.667L197.62 254.42 197.147 251.35C196.498 247.512 196.97 245.918 198.978 244.442 201.221 242.847 202.757 242.965 206.476 245.091L209.724 246.98 212.676 245.563C215.805 244.087 217.399 243.969 219.466 245.091 221.533 246.213 222.123 248.87 221.178 252.944L220.352 256.486 222.595 259.143C223.776 260.62 224.957 262.45 225.134 263.217 225.607 265.343 224.426 268 222.536 268.945 220.647 269.948 218.816 270.126 219.348 269.24 219.525 268.945 220.234 268.649 220.883 268.649 222.418 268.649 224.367 266.583 224.367 264.93 224.367 264.162 223.186 262.214 221.71 260.442 220.234 258.73 219.053 257.195 219.053 257.018 219.053 256.841 219.466 255.187 219.938 253.298 221.592 246.862 219.053 244.442 213.325 247.098 211.495 247.925 209.783 248.575 209.369 248.575 209.015 248.575 207.539 247.748 206.063 246.803 202.757 244.619 200.631 244.501 199.037 246.567 198.033 247.807 197.915 248.634 198.21 251.999L198.505 255.955 195.435 258.848C192.601 261.564 192.365 261.978 192.719 263.867 192.896 264.989 193.369 266.111 193.782 266.406 194.904 267.114 198.446 268.059 200.041 268.059 200.985 268.059 201.576 268.649 202.225 270.303 204.41 275.676 205.118 276.62 207.244 276.975 209.192 277.329 209.251 277.329 207.539 277.388 206.594 277.388 205.473 277.27 205.059 277.093Z" fill="#000000" fill-rule="nonzero" fill-opacity="1" transform="matrix(1 0 0 -1.00348 280.029 754.758)"/><path d="M519.822 248.043C520.058 247.689 521.121 247.394 522.184 247.394 524.368 247.394 526.671 245.386 526.671 243.438 526.671 242.788 525.49 240.722 524.014 238.95L521.298 235.703 522.302 231.806C523.188 228.264 523.188 227.791 522.302 226.492 520.826 224.189 519.291 224.071 515.099 225.843L511.379 227.437 508.84 225.725C505.297 223.304 504.412 223.068 502.522 224.071 500.338 225.193 500.101 225.961 500.515 230.625L500.869 234.522 497.858 237.297C495.791 239.246 494.787 240.604 494.787 241.548 494.787 243.32 496.323 245.622 497.503 245.622 497.976 245.622 498.33 245.918 498.33 246.213 498.33 247.276 497.09 246.803 495.319 245.091 492.603 242.316 492.957 240.19 496.677 236.53 499.511 233.814 499.747 233.341 499.57 231.157 499.157 225.488 499.275 224.839 500.928 223.363 502.522 222.005 506.183 221.473 506.832 222.536 507.009 222.831 508.249 223.599 509.548 224.308L511.969 225.547 515.453 224.071C519.232 222.477 521.239 222.536 522.715 224.249 524.073 225.902 524.309 227.909 523.424 231.57 522.774 234.522 522.774 235.113 523.483 235.821 523.955 236.293 524.309 236.943 524.309 237.297 524.309 237.651 524.841 238.183 525.431 238.478 528.088 239.895 528.206 245.563 525.608 247.158 524.073 248.161 519.35 248.87 519.822 248.043Z" fill="#000000" fill-rule="nonzero" fill-opacity="1" transform="matrix(1 0 0 -1.00348 280.029 754.758)"/></g></g></g></g></svg>